#format: frame checksums
#version: 2
#hash: MD5
#tb 0: 1/25
#media_type 0: video
#codec_id 0: hap
#dimensions 0: 352x288
#sar 0: 0/1
#stream#, dts,        pts, duration,     size, hash
0,          0,          0,        1,    42239, ad3bdee68ffa054fa2bdd3fbc083e39c
0,          1,          1,        1,    42268, 5b96644be5f424bc04e5695f58f6c238
0,          2,          2,        1,    42703, 6d6ea64b8808625638bb5e3e065042c1
0,          3,          3,        1,    42170, 307615782d52350c1379caefc79123ab
0,          4,          4,        1,    42005, 5dfcc935564600944eb7b8a3a82fb569
